<!-- icon666.com - MILLIONS vector ICONS FREE --><svg xmlns="http://www.w3.org/2000/svg" id="Layer_1" data-name="Layer 1" viewBox="0 0 512 512"><path d="M300.6,41.651C207,41.651,130.856,117.8,130.856,211.4S207,381.144,300.6,381.144,470.35,305,470.35,211.4,394.2,41.651,300.6,41.651Zm0,323.493c-84.777,0-153.747-68.971-153.747-153.747S215.826,57.651,300.6,57.651,454.35,126.621,454.35,211.4,385.379,365.144,300.6,365.144ZM300.6,0c-116.565,0-211.4,94.833-211.4,211.4A209.712,209.712,0,0,0,125.6,330l-8.86,8.86-2.444-2.444a8,8,0,0,0-11.315,0l-28,28a8,8,0,0,0,0,11.314l2.445,2.444L11.641,443.964a39.877,39.877,0,0,0,56.4,56.395l65.787-65.787.906.906a8,8,0,0,0,11.314,0l28-28a8,8,0,0,0,0-11.313l-.906-.906L182,386.4a209.728,209.728,0,0,0,118.6,36.4c116.564,0,211.4-94.832,211.4-211.4S417.167,0,300.6,0ZM56.722,489.045a23.877,23.877,0,1,1-33.767-33.767l65.787-65.787,33.767,33.767Zm83.664-70.538L91.954,370.076l16.688-16.688,48.431,48.431ZM300.6,406.794a193.912,193.912,0,0,1-114.8-37.28,8,8,0,0,0-10.364.813l-13.616,13.616-33.767-33.767,13.616-13.616a8,8,0,0,0,.811-10.364,193.9,193.9,0,0,1-37.279-114.8C105.205,103.655,192.86,16,300.6,16S496,103.655,496,211.4,408.345,406.794,300.6,406.794Zm113.411-122H394.04V199.451a8,8,0,0,0-8-8H361.412a8,8,0,0,0-8,8v85.341H345.2V240.224a8,8,0,0,0-8-8H312.568a8,8,0,0,0-8,8v44.568h-8.214V221.183a8,8,0,0,0-8-8H263.725a8,8,0,0,0-8,8v63.609H247.51v-24.7a8,8,0,0,0-8-8H214.881a8,8,0,0,0-8,8v24.7H186.908a8,8,0,1,0,0,16H414.014a8,8,0,0,0,0-16Zm-44.6-77.341h8.628v77.341h-8.628Zm-48.844,40.773H329.2v36.568h-8.629Zm-48.843-19.041h8.629v55.609h-8.629Zm-48.844,38.909h8.629v16.7h-8.629ZM373.727,122a20.07,20.07,0,0,0-17.851,29.3L337.328,167.12a20.015,20.015,0,0,0-27.682,2.681l-13.53-6.436a20.091,20.091,0,1,0-39.484,5.622L236.6,184.993a20.248,20.248,0,1,0,9.975,12.51l19.968-15.959a20.032,20.032,0,0,0,23.518-3.34l14.874,7.075a20.094,20.094,0,0,0,40.044-2.4c0-.407-.037-.8-.061-1.205l23.648-20.162a19.977,19.977,0,0,0,23.587-11.4H414.3a8,8,0,0,0,0-16H392.156A20.122,20.122,0,0,0,373.727,122ZM227.2,206.844a4.1,4.1,0,1,1,4.1-4.1A4.106,4.106,0,0,1,227.2,206.844Zm48.844-38.909a4.1,4.1,0,1,1,4.1-4.1A4.105,4.105,0,0,1,276.039,167.935Zm48.844,19.041a4.1,4.1,0,1,1,4.1-4.1A4.106,4.106,0,0,1,324.883,186.976ZM373.727,146.2a4.1,4.1,0,1,1,4.1-4.1A4.106,4.106,0,0,1,373.727,146.2Z"></path></svg>