<!-- icon666.com - MILLIONS vector ICONS FREE --><svg id="Layer_1" enable-background="new 0 0 468 468" viewBox="0 0 468 468" xmlns="http://www.w3.org/2000/svg"><g><path d="m438 396.776h-79.517v-53.835c0-34.862-14.609-67.15-38.653-90.115 3.125-6.302 4.764-13.244 4.771-20.344l.13-59.191c7.362-1.433 12.939-7.924 12.939-15.699v-12.063h49.294c13.255 0 24 10.745 24 24v153.019c0 3.067 2.203 5.812 5.248 6.182 3.649.444 6.752-2.393 6.752-5.954v-153.247c0-19.882-16.118-36-36-36h-50.259c-1.892-5.231-6.425-9.204-11.991-10.281 1.668-47.137-31.677-89.509-78.377-97.742-25.439-4.481-50.845 7.1-64.192 28.967-22.388 4.159-38.891 23.774-38.864 46.831l.025 21.883c-5.747.961-10.454 4.987-12.391 10.343h-49.88c-19.882 0-36 16.118-36 36v227.247h-15.035c-3.314 0-6 2.686-6 6v19.223c0 25.405 20.595 46 46 46h328c25.405 0 46-20.595 46-46v-19.224c0-3.313-2.686-6-6-6zm-91.517-53.835v53.835h-39.124v-36.717c0-3.067-2.203-5.812-5.248-6.182-3.649-.444-6.752 2.393-6.752 5.954v36.945h-122.718v-36.717c0-3.067-2.203-5.812-5.248-6.182-3.649-.444-6.752 2.393-6.752 5.954v36.945h-39.124v-53.835c0-47.962 30.595-90.524 75.304-106.166v19.105c0 19.715 15.087 36.519 34.762 37.771 21.591 1.373 39.597-15.801 39.597-37.103v-19.773c44.708 15.642 75.303 58.204 75.303 106.166zm-191.053-110.467-.067-58.881h10.123c1.62 21.179 12.824 39.701 29.274 51.21-13.628 4.521-26.102 11.289-37.059 19.82-1.485-3.855-2.267-7.964-2.271-12.149zm157.233-58.881-.013 12.487c-.53 3.901-3.874 6.92-7.918 6.92h-6.594c2.349-6.1 3.851-12.616 4.375-19.407zm-22.248-38.967c.227 18.64 3.076 40.999-5.315 58.374h-50.872c-3.067 0-5.812 2.203-6.182 5.248-.444 3.649 2.393 6.752 5.954 6.752h43.297c-10.416 12.332-25.956 20.182-43.297 20.182-31.286 0-56.739-25.524-56.739-56.898v-43.375c0-11.891 8.525-21.861 20.271-23.709l33.962-5.339c11.847 22.337 33.953 36.777 58.921 38.765zm-81.595 97.747c16.077 6.368 34.283 6.369 50.359-.001v23.657c0 12.847-10.436 24.666-23.247 25.627-14.753 1.107-27.112-10.584-27.112-25.107zm64.418-7.571c7.529-5.269 13.957-12.007 18.875-19.802 0 0 18.094-.586 20.519-1.633l-.03 29.104c-.004 4.194-.788 8.31-2.278 12.171-10.964-8.541-23.447-15.315-37.086-19.84zm52.433-67.209c0 2.209-1.791 4-4 4h-18.995l-.258-26.644h16.284c2.473-.46 6.968.337 6.968 4v18.644zm-139.056-91.67c1.912-.23 3.596-1.332 4.518-3.022 10.388-19.065 31.745-29.348 53.121-25.576 40.908 7.212 69.996 44.361 68.461 85.625h-15.368c-25.457-4.227-44.95-11.686-57.127-36.396-1.174-2.325-3.713-3.633-6.287-3.223l-38.264 6.016c-16.97 2.667-29.453 16.642-30.351 33.604h-10.012l-.024-21.659c-.021-18.014 13.449-33.219 31.333-35.369zm-44.666 73.026c0-3.783 4.854-4.499 7.37-4h15.941v26.644h-19.312c-2.209 0-4-1.791-4-4v-18.644zm-84.914 30.58c0-13.255 10.745-24 24-24h48.914v12.063c0 7.939 5.819 14.528 13.413 15.771l.068 59.123c.008 7.089 1.644 14.023 4.761 20.319-24.057 22.965-38.674 55.263-38.674 90.135v53.835h-52.482zm374.965 252.471c0 18.778-15.222 34-34 34h-328c-18.778 0-34-15.222-34-34v-13.224h396z" fill="#000000" style="fill: rgb(255, 255, 255);"></path><path d="m450 0h-71.562c-9.941 0-18 8.059-18 18v35.603l-20.577 19.605c-3.288 5.315-1.909 8.763 4.139 10.344h106c9.941 0 18-8.059 18-18v-47.552c0-9.941-8.059-18-18-18zm6 65.552c0 3.314-2.686 6-6 6h-91.005l11.582-11.035c1.189-1.133 1.861-2.703 1.861-4.344v-38.173c0-3.314 2.686-6 6-6h71.562c3.314 0 6 2.686 6 6z" fill="#000000" style="fill: rgb(255, 255, 255);"></path><path d="m433.438 35.649h-38.422c-3.067 0-5.812 2.203-6.182 5.248-.444 3.649 2.393 6.752 5.954 6.752h38.422c3.067 0 5.812-2.203 6.182-5.248.444-3.649-2.393-6.752-5.954-6.752z" fill="#000000" style="fill: rgb(255, 255, 255);"></path><path d="m128.139 73.208-20.577-19.605v-35.603c0-9.941-8.059-18-18-18h-71.562c-9.941 0-18 8.059-18 18v47.552c0 9.941 8.059 18 18 18h106c8.25-1.052 5.915-8.652 4.139-10.344zm-110.139-1.656c-3.314 0-6-2.686-6-6v-47.552c0-3.314 2.686-6 6-6h71.562c3.314 0 6 2.686 6 6v38.172c0 1.642.673 3.212 1.861 4.344l11.582 11.035h-91.005z" fill="#000000" style="fill: rgb(255, 255, 255);"></path><path d="m73.211 35.649h-38.422c-3.067 0-5.812 2.203-6.182 5.248-.444 3.649 2.393 6.752 5.954 6.752h38.422c3.067 0 5.812-2.203 6.182-5.248.444-3.649-2.393-6.752-5.954-6.752z" fill="#000000" style="fill: rgb(255, 255, 255);"></path><path d="m418.336 350.667c-4.932-.936-9.176 3.308-8.241 8.24.522 2.755 2.744 4.977 5.5 5.499 4.931.935 9.174-3.308 8.24-8.239-.522-2.755-2.744-4.977-5.499-5.5z" fill="#000000" style="fill: rgb(255, 255, 255);"></path></g></svg>