<!-- icon666.com - MILLIONS vector ICONS FREE --><svg id="Capa_1" enable-background="new 0 0 512 512" viewBox="0 0 512 512" xmlns="http://www.w3.org/2000/svg"><g><g id="Page-1_97_"><g id="_x30_98---Website-Filtering"><path id="Shape_746_" d="m145.067 76.8h-93.867c-4.713 0-8.533 3.821-8.533 8.533s3.821 8.533 8.533 8.533h93.867c4.713 0 8.533-3.821 8.533-8.533s-3.821-8.533-8.533-8.533z" fill="#000000" style="fill: rgb(255, 255, 255);"></path><path id="Shape_745_" d="m210.833 70.767c-3.332-3.331-8.734-3.331-12.066 0l-2.5 2.5-2.5-2.5c-3.348-3.234-8.671-3.188-11.962.104-3.292 3.292-3.338 8.614-.104 11.962l2.5 2.5-2.5 2.5c-2.218 2.143-3.108 5.315-2.327 8.299s3.111 5.313 6.094 6.094c2.984.781 6.156-.109 8.299-2.327l2.5-2.5 2.5 2.5c3.348 3.234 8.671 3.188 11.962-.104 3.292-3.292 3.338-8.614.104-11.962l-2.5-2.5 2.5-2.5c3.331-3.332 3.331-8.734 0-12.066z" fill="#000000" style="fill: rgb(255, 255, 255);"></path><circle id="Oval_323_" cx="452.267" cy="51.2" r="8.533" fill="#000000" style="fill: rgb(255, 255, 255);"></circle><circle id="Oval_322_" cx="418.133" cy="51.2" r="8.533" fill="#000000" style="fill: rgb(255, 255, 255);"></circle><circle id="Oval_321_" cx="384" cy="51.2" r="8.533" fill="#000000" style="fill: rgb(255, 255, 255);"></circle><path id="Shape_744_" d="m469.333 0h-426.666c-23.553.028-42.639 19.114-42.667 42.667v358.4c.028 23.552 19.114 42.638 42.667 42.667h153.6v42.666c.033 14.098 11.434 25.53 25.532 25.6 2.782-.008 5.546-.463 8.183-1.348l68.198-22.758c10.49-3.454 17.572-13.259 17.553-24.303v-19.857h153.6c23.552-.028 42.638-19.114 42.667-42.667v-358.4c-.028-23.553-19.114-42.639-42.667-42.667zm-452.266 51.2h204.8c4.713 0 8.533 3.821 8.533 8.533v17.067c0 14.138 11.462 25.6 25.6 25.6h238.933v17.067h-477.866zm25.6-34.133h426.667c14.138 0 25.6 11.462 25.6 25.6v42.667h-238.934c-4.713 0-8.533-3.82-8.533-8.533v-17.068c0-14.138-11.462-25.6-25.6-25.6h-203.23c3.603-10.191 13.22-17.022 24.03-17.066zm250.137 454.647-68.267 22.767c-2.596.856-5.446.416-7.663-1.184-2.217-1.599-3.534-4.164-3.542-6.897v-68.267h25.6c4.713 0 8.533-3.821 8.533-8.533 0-4.713-3.821-8.533-8.533-8.533h-31.095l-115.532-93.867h327.39l-115.533 93.867h-31.095c-4.713 0-8.533 3.821-8.533 8.533 0 4.713 3.82 8.533 8.533 8.533h25.6v45.474c.001 3.685-2.363 6.954-5.863 8.107zm142.396-181.581h-358.4v-25.6h358.4zm34.133 136.534h-153.6v-13.022l127.078-103.253c5.989-4.848 9.464-12.144 9.455-19.849v-26.01c0-9.426-7.641-17.067-17.067-17.067h-358.399c-9.426 0-17.067 7.641-17.067 17.067v26.01c-.014 7.711 3.462 15.014 9.455 19.866l127.078 103.236v13.022h-153.6c-14.138 0-25.6-11.462-25.6-25.6v-264.534h477.867v264.533c0 14.139-11.461 25.601-25.6 25.601z" fill="#000000" style="fill: rgb(255, 255, 255);"></path><path id="Shape_743_" d="m224.367 198.767-2.5 2.5v-39.134c0-4.713-3.821-8.533-8.533-8.533s-8.533 3.821-8.533 8.533v39.134l-2.5-2.5c-3.348-3.234-8.671-3.188-11.962.104-3.292 3.292-3.338 8.614-.104 11.962l17.065 17.067c3.332 3.331 8.734 3.331 12.066 0l17.067-17.067c3.234-3.348 3.188-8.671-.104-11.962-3.291-3.292-8.614-3.338-11.962-.104z" fill="#000000" style="fill: rgb(255, 255, 255);"></path><path id="Shape_742_" d="m304.7 156.1c-3.332-3.331-8.734-3.331-12.066 0l-17.067 17.067c-3.234 3.348-3.188 8.671.104 11.962 3.292 3.292 8.614 3.338 11.962.104l2.5-2.5v39.134c0 4.713 3.82 8.533 8.533 8.533s8.533-3.821 8.533-8.533v-39.134l2.5 2.5c3.348 3.234 8.671 3.188 11.962-.104 3.292-3.292 3.338-8.614.104-11.962z" fill="#000000" style="fill: rgb(255, 255, 255);"></path></g></g></g></svg>