<!-- icon666.com - MILLIONS vector ICONS FREE --><svg id="Layer_1" enable-background="new 0 0 60 60" viewBox="0 0 60 60" xmlns="http://www.w3.org/2000/svg"><g fill="rgb(0,0,0)"><path d="m30 6c-13.2333984 0-24 10.7666016-24 24s10.7666016 24 24 24 24-10.7666016 24-24-10.7666016-24-24-24zm21.5962524 19.817688c-2.5647583-2.079895-7.0606689-3.7134399-12.8457642-4.5585327-.8515015-5.7910767-2.4901733-10.2905273-4.5727539-12.8562622 8.7842408 1.6960449 15.7206422 8.6312256 17.4185181 17.4147949zm-5.1177368.494812h-7.2293091c-.0548706-.9750977-.1379395-1.9736938-.2475586-2.9941406 8.5331421 1.3395996 12.9983521 4.3156128 12.9983521 6.6816406 0 1.4932861-1.6296997 3.0431519-4.5214844 4.3466187v-7.0341187c0-.5522461-.4472656-1-1-1zm-22.5108642 16.0380859h5.0323486v9.4019775c-1.9439087-.9226684-3.8423462-4.432373-5.0323486-9.4019775zm7.0323486 9.4019776v-9.4019775h5.0313721c-1.1898804 4.9696044-3.0875855 8.479309-5.0313721 9.4019775zm-.9951782-11.4019776c-.001709 0-.0031128-.0009766-.0048218-.0009766s-.0031128.0009766-.0048218.0009766h-15.4746704v-12.0380859h30.9580078v12.0380859zm-16.484314-14.0380859c-.5527344 0-1 .4477539-1 1v7.0340576c-2.8909302-1.3031616-4.5205078-2.8533325-4.5205078-4.3465576 0-2.3664551 4.46521-5.3425293 12.9983521-6.6812744-.1101075 1.0227661-.1935425 2.0213013-.2483521 2.9937744zm9.5195923-3.2799683c1.9448853-.2250976 3.9463501-.3529663 5.9598999-.3848877v3.664856h-6.2467041c.0623169-1.0609131.156311-2.1502075.2868042-3.2799683zm7.9598999-.3848877c2.0135498.0319824 4.0149536.1598511 5.9598389.3849487.130188 1.1265869.2238159 2.2160645.2860718 3.2799072h-6.2459107zm0-1.9999389v-12.3931885c2.1480713 1.0467529 4.5232544 5.37677 5.6879272 12.7357178-1.8630981-.1994629-3.7702636-.3129883-5.6879272-.3425293zm-2-12.3936157v12.3936157c-1.9178467.029541-3.8252563.1431274-5.6885376.3425903 1.1642456-7.3602905 3.5393677-11.6900635 5.6885376-12.736206zm-3.1784668.1489257c-2.0826416 2.5657349-3.7211914 7.0652466-4.5720825 12.8563843-5.7850952.8446655-10.2809448 2.4781494-12.8457031 4.5581055 1.697937-8.7832031 8.6340332-15.7181397 17.4177856-17.4144898zm-17.4088745 25.8291016c1.0427246.8344727 2.4170532 1.6015015 4.1078491 2.2880249v4.8304443c0 .5522461.4472656 1 1 1h8.3988037c.9272461 4.0935669 2.2727661 7.2550659 3.8828125 9.2429199-8.7581787-1.6995849-15.6763916-8.6079711-17.3894653-17.3613891zm25.7856445 17.3612671c1.6098022-1.987854 2.9547119-5.149292 3.8814697-9.2427979h8.3987427c.5527344 0 1-.4477539 1-1v-4.8305054c1.6913452-.6867676 3.06604-1.4538574 4.1089478-2.2883911-1.7128906 8.7534791-8.6310425 15.6619263-17.3891602 17.3616944z" fill="rgb(0,0,0)" style="fill: rgb(255, 255, 255);"></path><path d="m23.9248047 31.277832c-.5292969-.168457-1.0888672.1220703-1.2568359.6479492l-.6103516 1.9067383-.3779297-.7324219c-.34375-.6650391-1.4335938-.6650391-1.7773438 0l-.3779297.7324219-.6103516-1.9067383c-.1679688-.5258789-.7275391-.8168945-1.2568359-.6479492-.5263672.168457-.8164063.730957-.6474609 1.2573242l1.34375 4.2021484c.1230469.3847656.4658203.6582031.8681641.6918945.4130859.0375977.7871094-.1782227.9726563-.5375977l.5966797-1.1547852.5966797 1.1547852c.1728516.3344727.5166016.5410156.8886719.5410156.0273438 0 .0556641-.0009766.0839844-.003418.4023438-.0336914.7451172-.3071289.8681641-.6918945l1.34375-4.2021484c.1689451-.526367-.1210939-1.088867-.6474611-1.2573241z" fill="rgb(0,0,0)" style="fill: rgb(255, 255, 255);"></path><path d="m33.1337891 31.277832c-.5302734-.168457-1.0888672.1220703-1.2568359.6479492l-.6103516 1.9067383-.3779297-.7324219c-.34375-.6650391-1.4335938-.6650391-1.7773438 0l-.3789063.7329102-.6103516-1.9072266c-.1679688-.5258789-.7275391-.8168945-1.2568359-.6479492-.5263672.168457-.8164063.7314453-.6474609 1.2573242l1.3447266 4.2021485c.1230469.3852539.4658203.6582031.8681641.6918945.4189453.0375977.7871094-.1782227.9726563-.5375977l.5966796-1.1547851.5966797 1.1547852c.1728516.3344727.5166016.5410156.8886719.5410156.0273438 0 .0556641-.0009766.0839844-.003418.4023438-.0336914.7451172-.3071289.8681641-.6918945l1.34375-4.2021484c.1689452-.5263672-.1210938-1.0888672-.647461-1.2573243z" fill="rgb(0,0,0)" style="fill: rgb(255, 255, 255);"></path><path d="m42.3427734 31.277832c-.5292969-.168457-1.0888672.1220703-1.2568359.6479492l-.6103516 1.9072266-.3789063-.7329102c-.34375-.6650391-1.4335938-.6650391-1.7773438 0l-.3779297.7324219-.6103516-1.9067383c-.1679688-.5258789-.7294922-.8168945-1.2568359-.6479492-.5263672.168457-.8164063.730957-.6474609 1.2573242l1.34375 4.2021484c.1230469.3847656.4658203.6582031.8681641.6918945.0283203.0024414.0566406.003418.0839844.003418.3720703 0 .7158203-.206543.8886719-.5410156l.5966797-1.1547852.5966797 1.1547852c.1855469.3588867.5576172.5688477.9726563.5375977.4023438-.0336914.7451172-.3066406.8681641-.6918945l1.3447266-4.2021484c.1689452-.525879-.1210939-1.0888672-.6474611-1.2573243z" fill="rgb(0,0,0)" style="fill: rgb(255, 255, 255);"></path></g></svg>