<!-- icon666.com - MILLIONS vector ICONS FREE --><svg id="Capa_1" enable-background="new 0 0 511.549 511.549" viewBox="0 0 511.549 511.549" xmlns="http://www.w3.org/2000/svg"><g><g><path d="m169.054 255.108c-49.114 0-89.071 39.957-89.071 89.07 0 15.796 4.19 31.315 12.119 44.883 2.09 3.577 6.684 4.781 10.26 2.691s4.781-6.684 2.691-10.26c-6.588-11.273-10.07-24.176-10.07-37.314 0-40.843 33.229-74.07 74.071-74.07s74.071 33.228 74.071 74.07-33.229 74.071-74.071 74.071c-15.262 0-29.915-4.603-42.376-13.31-3.396-2.373-8.071-1.543-10.443 1.852-2.373 3.396-1.544 8.071 1.852 10.443 14.992 10.477 32.617 16.015 50.968 16.015 49.114 0 89.071-39.957 89.071-89.071-.001-49.113-39.958-89.07-89.072-89.07z"></path><path d="m317.468 314.238h-14.198c-3.472-15.604-9.592-30.343-18.21-43.854l10.045-10.044c3.58-3.581 5.552-8.341 5.552-13.404s-1.972-9.823-5.552-13.404l-15.47-15.47c-7.392-7.39-19.417-7.389-26.809.001l-10.063 10.063c-13.516-8.604-28.259-14.711-43.862-18.169v-14.193c0-10.452-8.503-18.956-18.955-18.956h-21.878c-10.452 0-18.956 8.504-18.956 18.956v14.193c-15.611 3.459-30.361 9.569-43.885 18.183l-10.013-10.013c-7.393-7.391-19.416-7.389-26.809 0l-15.47 15.47c-3.58 3.581-5.552 8.341-5.552 13.404s1.972 9.823 5.552 13.404l10.003 10.002c-8.628 13.531-14.749 28.293-18.215 43.923h-14.084c-10.452 0-18.955 8.504-18.955 18.956v21.877c0 10.452 8.503 18.956 18.955 18.956h14.079c3.463 15.642 9.589 30.419 18.223 43.961l-9.937 9.937c-3.581 3.58-5.553 8.341-5.553 13.404s1.972 9.824 5.552 13.404l15.47 15.47c3.581 3.58 8.341 5.552 13.404 5.552s9.822-1.972 13.403-5.552l9.948-9.949c13.548 8.628 28.327 14.747 43.977 18.203v14.044c0 10.452 8.504 18.955 18.956 18.955h21.878c10.452 0 18.955-8.503 18.955-18.955v-14.083c15.63-3.474 30.396-9.608 43.93-18.249l9.969 9.97c7.39 7.391 19.416 7.391 26.808 0l15.47-15.47c7.391-7.392 7.391-19.417 0-26.809l-10.01-10.009c8.606-13.533 14.709-28.294 18.156-43.916h14.151c10.452 0 18.956-8.504 18.956-18.956v-21.877c0-10.452-8.504-18.956-18.956-18.956zm3.956 40.833c0 2.182-1.774 3.956-3.956 3.956h-15.588c-6.22 0-11.664 4.428-12.943 10.526-3.103 14.777-8.861 28.707-17.115 41.401-3.395 5.217-2.672 12.19 1.718 16.581l11.023 11.023c1.543 1.542 1.543 4.052 0 5.594l-15.47 15.47c-1.542 1.543-4.053 1.541-5.593 0l-10.985-10.985c-4.397-4.398-11.378-5.115-16.601-1.706-12.695 8.289-26.629 14.077-41.411 17.204-6.09 1.286-10.509 6.728-10.509 12.938v15.52c0 2.181-1.774 3.955-3.955 3.955h-21.878c-2.182 0-3.956-1.774-3.956-3.955v-15.481c0-6.22-4.427-11.663-10.524-12.942-14.801-3.109-28.749-8.883-41.458-17.16-2.202-1.435-4.719-2.135-7.221-2.135-3.427 0-6.827 1.313-9.366 3.851l-10.963 10.963c-1.542 1.543-4.053 1.541-5.593 0l-15.471-15.47c-.747-.747-1.158-1.74-1.158-2.797s.411-2.05 1.159-2.797l10.952-10.952c4.395-4.396 5.114-11.373 1.711-16.593-8.282-12.704-14.062-26.646-17.179-41.443-1.284-6.094-6.727-10.517-12.941-10.517h-15.514c-2.181 0-3.955-1.774-3.955-3.956v-21.877c0-2.182 1.774-3.956 3.955-3.956h15.522c6.214 0 11.656-4.423 12.94-10.515 3.118-14.782 8.896-28.714 17.172-41.408 3.402-5.22 2.682-12.197-1.712-16.592l-11.018-11.018c-1.543-1.542-1.543-4.052 0-5.594l15.469-15.47c1.543-1.544 4.054-1.543 5.595 0l11.027 11.027c4.395 4.393 11.369 5.113 16.588 1.715 12.687-8.263 26.606-14.03 41.374-17.143 6.093-1.284 10.516-6.727 10.516-12.941v-15.629c0-2.182 1.774-3.956 3.956-3.956h21.878c2.181 0 3.955 1.774 3.955 3.956v15.629c0 6.215 4.423 11.657 10.517 12.941 14.76 3.111 28.673 8.875 41.353 17.129 5.217 3.398 12.193 2.676 16.586-1.717l11.076-11.077c1.543-1.544 4.054-1.543 5.595 0l15.47 15.47c.747.747 1.159 1.74 1.159 2.797s-.412 2.05-1.159 2.797l-11.06 11.06c-4.396 4.396-5.114 11.376-1.71 16.596 8.268 12.675 14.044 26.585 17.169 41.346 1.288 6.086 6.729 10.504 12.938 10.504h15.634c2.182 0 3.956 1.774 3.956 3.956v21.877z"></path><path d="m503.404 147.38-23.421-13.522c.405-3.496.611-7.049.611-10.581s-.206-7.085-.611-10.582l23.419-13.521c2.987-1.724 5.124-4.508 6.018-7.839.893-3.331.435-6.811-1.29-9.797l-2.708-4.69c-2.07-3.588-6.659-4.814-10.245-2.745-3.587 2.071-4.816 6.658-2.745 10.245l1.663 2.88-22.821 13.176c-4.533 2.619-7.02 7.669-6.334 12.864.435 3.295.655 6.663.655 10.01 0 3.348-.221 6.715-.655 10.01-.686 5.197 1.802 10.247 6.336 12.864l22.819 13.175-20.888 36.179-22.823-13.178c-4.543-2.622-10.169-2.248-14.329.96-5.31 4.093-11.132 7.46-17.306 10.008-4.848 2.002-7.98 6.682-7.98 11.922v26.337h-41.775v-26.337c0-5.24-3.133-9.92-7.981-11.922-6.175-2.549-11.997-5.916-17.305-10.007-4.159-3.208-9.783-3.585-14.328-.961l-22.824 13.178-20.888-36.179 22.819-13.175c4.533-2.617 7.021-7.667 6.335-12.865-.435-3.294-.655-6.661-.655-10.009 0-3.347.221-6.715.655-10.011.686-5.195-1.8-10.244-6.335-12.864l-22.819-13.175 20.888-36.178 22.823 13.178c4.543 2.622 10.167 2.245 14.328-.961 5.312-4.093 11.134-7.46 17.306-10.007 4.849-2.002 7.981-6.682 7.981-11.923v-26.337h41.775v26.336c0 5.241 3.133 9.921 7.981 11.923 6.17 2.546 11.992 5.913 17.305 10.008 4.161 3.204 9.785 3.582 14.328.96l22.824-13.178 2.383 4.127c2.07 3.587 6.657 4.815 10.245 2.745 3.587-2.07 4.816-6.657 2.745-10.245l-3.429-5.938c-1.724-2.985-4.508-5.121-7.838-6.014-3.333-.893-6.813-.435-9.796 1.29l-23.424 13.523c-5.684-4.242-11.837-7.8-18.325-10.597v-27.031c0-7.118-5.791-12.909-12.91-12.909h-45.955c-7.119 0-12.91 5.791-12.91 12.909v27.03c-6.489 2.798-12.642 6.355-18.325 10.598l-23.424-13.523c-2.986-1.725-6.467-2.182-9.796-1.29-3.331.893-6.115 3.028-7.839 6.015l-22.978 39.799c-1.725 2.986-2.183 6.466-1.29 9.796.893 3.332 3.028 6.115 6.015 7.839l23.421 13.522c-.405 3.497-.611 7.05-.611 10.582s.206 7.086.611 10.581l-23.422 13.523c-2.985 1.724-5.121 4.508-6.014 7.838-.893 3.332-.435 6.811 1.29 9.796l22.977 39.797c3.558 6.166 11.467 8.286 17.636 4.728l23.424-13.523c5.681 4.239 11.833 7.798 18.325 10.598v27.029c0 7.119 5.791 12.91 12.91 12.91h45.955c7.119 0 12.91-5.791 12.91-12.91v-27.03c6.492-2.799 12.645-6.357 18.324-10.597l23.426 13.524c6.163 3.556 14.074 1.438 17.634-4.727l22.977-39.798c1.726-2.986 2.184-6.466 1.291-9.797s-3.03-6.115-6.016-7.839z"></path><path d="m389.88 69.115c-29.864 0-54.161 24.297-54.161 54.161s24.297 54.16 54.161 54.16 54.16-24.296 54.16-54.16-24.295-54.161-54.16-54.161zm0 93.322c-21.594 0-39.161-17.567-39.161-39.16 0-21.594 17.567-39.161 39.161-39.161 21.593 0 39.16 17.567 39.16 39.161 0 21.592-17.567 39.16-39.16 39.16z"></path></g></g></svg>