<!-- icon666.com - MILLIONS vector ICONS FREE --><svg id="Capa_1" enable-background="new 0 0 512 512" viewBox="0 0 512 512" xmlns="http://www.w3.org/2000/svg"><g><path d="m175.134 28.459h-18.101c-4.143 0-7.5 3.357-7.5 7.5s3.357 7.5 7.5 7.5h18.101c4.143 0 7.5-3.357 7.5-7.5s-3.358-7.5-7.5-7.5z"></path><path d="m137.033 468.541c-4.143 0-7.5 3.357-7.5 7.5s3.357 7.5 7.5 7.5h58.101c4.143 0 7.5-3.357 7.5-7.5s-3.357-7.5-7.5-7.5z"></path><path d="m455.066 291.459h-42.719c-4.143 0-7.5 3.357-7.5 7.5s3.357 7.5 7.5 7.5h42.719c4.143 0 7.5-3.357 7.5-7.5s-3.357-7.5-7.5-7.5z"></path><path d="m148.721 283.483c-3.464-2.267-8.114-1.296-10.382 2.171-2.268 3.466-1.296 8.114 2.171 10.382 6.654 4.353 11.505 6.041 17.571 6.612v4.344c0 4.143 3.357 7.5 7.5 7.5s7.5-3.357 7.5-7.5v-5.053c12.099-3.144 19.854-13.509 21.572-23.732 2.223-13.223-4.956-25.173-17.863-29.735-1.221-.432-2.464-.88-3.709-1.341v-23.428c3.898.88 6.443 2.437 6.688 2.592 3.447 2.248 8.067 1.3 10.347-2.137 2.29-3.452 1.348-8.106-2.104-10.396-.369-.244-6.215-4.037-14.93-5.263v-3.492c0-4.143-3.357-7.5-7.5-7.5s-7.5 3.357-7.5 7.5v4.375c-.401.106-.801.213-1.206.335-8.712 2.624-15.218 10.06-16.979 19.403-1.616 8.581 1.174 16.888 7.282 21.679 2.84 2.227 6.296 4.27 10.902 6.389v30.38c-3.141-.482-5.561-1.599-9.36-4.085zm31.14-7.762c-.637 3.785-2.938 7.758-6.78 10.101v-22.683c7.427 3.308 7.244 9.824 6.78 12.582zm-23.424-36.724c-1.66-1.302-2.366-4.088-1.799-7.099.391-2.076 1.484-4.454 3.443-6.118v14.388c-.584-.384-1.139-.774-1.644-1.171z"></path><path d="m166.083 171.702c-16.836 0-33.094 4.952-47.014 14.322-3.437 2.313-4.348 6.974-2.034 10.409 2.313 3.438 6.975 4.348 10.409 2.034 11.437-7.697 24.797-11.766 38.639-11.766 38.212 0 69.299 31.087 69.299 69.298s-31.087 69.298-69.299 69.298c-38.211 0-69.298-31.087-69.298-69.298 0-13.704 4.001-26.959 11.571-38.334 2.295-3.448 1.36-8.104-2.088-10.398-3.449-2.296-8.104-1.361-10.398 2.088-9.215 13.845-14.085 29.974-14.085 46.645 0 46.482 37.815 84.298 84.298 84.298s84.299-37.815 84.299-84.298-37.817-84.298-84.299-84.298z"></path><path d="m489.479 169.351h-40.779c-4.143 0-7.5 3.357-7.5 7.5s3.357 7.5 7.5 7.5h40.778c4.147 0 7.521 3.374 7.521 7.521v17.687h-207.815v-17.687c0-4.147 3.375-7.521 7.522-7.521h122.008c4.143 0 7.5-3.357 7.5-7.5s-3.357-7.5-7.5-7.5h-86.547c0-14.905 0-116.397 0-134.31 0-19.321-15.72-35.041-35.041-35.041h-262.085c-19.321 0-35.041 15.72-35.041 35.041v441.918c0 19.321 15.72 35.041 35.041 35.041h192.847c4.143 0 7.5-3.357 7.5-7.5s-3.357-7.5-7.5-7.5h-192.847c-11.051 0-20.041-8.99-20.041-20.041v-21.877h302.167v21.877c0 11.051-8.99 20.041-20.041 20.041h-39.251c-4.143 0-7.5 3.357-7.5 7.5s3.357 7.5 7.5 7.5h39.251c19.321 0 35.041-15.72 35.041-35.041 0-16.023 0-117.266 0-134.309h157.312c12.418 0 22.521-10.104 22.521-22.522 0-26.17 0-101.865 0-128.256 0-12.418-10.104-22.521-22.521-22.521zm7.521 55.208v18.3h-207.816v-18.3zm-482-189.518c0-11.051 8.99-20.041 20.041-20.041h262.085c11.051 0 20.041 8.99 20.041 20.041v21.878h-302.167zm302.167 405.041h-302.167v-368.163h302.167v97.432h-20.461c-12.419 0-22.522 10.104-22.522 22.521v128.256c0 12.419 10.104 22.522 22.522 22.522h20.461zm172.312-112.432h-192.773c-4.147 0-7.522-3.375-7.522-7.522v-62.27h207.816v62.27c0 4.147-3.374 7.522-7.521 7.522z"></path></g></svg>