<!-- icon666.com - MILLIONS vector ICONS FREE --><svg id="Layer_1" enable-background="new 0 0 512 512" viewBox="0 0 512 512" xmlns="http://www.w3.org/2000/svg"><path d="m496 462.938h-446.938v-446.938c0-4.418-3.582-8-8-8h-25.062c-4.418 0-8 3.582-8 8v480c0 4.418 3.582 8 8 8h480c4.418 0 8-3.582 8-8v-25.062c0-4.418-3.582-8-8-8zm-8 25.062h-464v-464h9.062v446.938c0 4.418 3.582 8 8 8h446.938zm-120.549-307.32c-4.418 0-8 3.582-8 8v231.257c0 4.418 3.582 8 8 8h60.467c4.418 0 8-3.582 8-8v-231.257c0-4.418-3.582-8-8-8zm52.467 231.257h-44.467v-215.257h44.467zm-180.621-167.309c-4.418 0-8 3.582-8 8v167.31c0 4.418 3.582 8 8 8h60.468c4.418 0 8-3.582 8-8v-167.31c0-4.418-3.582-8-8-8zm52.468 167.309h-44.468v-151.31h44.468zm-180.622-103.362c-4.418 0-8 3.582-8 8v103.362c0 4.418 3.582 8 8 8h60.468c4.418 0 8-3.582 8-8v-103.362c0-4.418-3.582-8-8-8zm52.467 103.362h-44.468v-87.362h44.468zm-12.583-165.413c.512-.593.82-1.261.658-2.594-.177-1.458-.591-4.868-11.553-6.668-19.457-3.194-22.881-14.375-23.189-20.756-.494-10.156 6.04-18.726 16.434-21.847v-1.284c0-4.418 3.582-8 8-8s8 3.582 8 8v1.211c6.672 1.936 12.855 6.508 16.217 14.512 1.711 4.074-.205 8.763-4.279 10.473-4.067 1.71-8.762-.205-10.473-4.279-2.499-5.953-8.742-6.274-12.032-5.528-1.433.325-6.092 1.716-5.886 5.965.05 1.032.202 4.167 9.801 5.744 15.134 2.485 23.493 9.392 24.844 20.527.687 5.653-.849 10.836-4.439 14.989-3.233 3.739-8.125 6.465-13.752 7.792v.991c0 4.418-3.582 8-8 8s-8-3.582-8-8v-1.132c-9.049-2.43-15.914-8.918-18.114-17.744-1.068-4.287 1.54-8.628 5.827-9.697 4.296-1.068 8.63 1.54 9.698 5.827 1.266 5.081 6.787 6.764 11.146 6.658 3.822-.091 7.562-1.391 9.092-3.16zm-9.65 51.397c37.687 0 68.347-30.66 68.347-68.347s-30.66-68.347-68.347-68.347-68.347 30.66-68.347 68.347c0 37.686 30.66 68.347 68.347 68.347zm0-120.694c28.864 0 52.347 23.482 52.347 52.347s-23.482 52.347-52.347 52.347-52.347-23.483-52.347-52.348 23.483-52.346 52.347-52.346zm128.154-55.8c4.418 0 8 3.582 8 8v1.211c6.672 1.937 12.855 6.508 16.217 14.513 1.711 4.074-.205 8.763-4.279 10.473-4.068 1.71-8.763-.204-10.473-4.279-2.498-5.953-8.743-6.275-12.032-5.528-1.433.325-6.092 1.715-5.886 5.965.05 1.031.202 4.167 9.802 5.744 15.132 2.484 23.49 9.39 24.843 20.526.687 5.654-.849 10.838-4.44 14.99-3.234 3.739-8.124 6.464-13.751 7.791v.991c0 4.418-3.582 8-8 8s-8-3.582-8-8v-1.132c-9.049-2.429-15.913-8.917-18.114-17.744-1.068-4.287 1.54-8.629 5.827-9.698 4.295-1.069 8.63 1.54 9.698 5.827 1.266 5.08 6.782 6.757 11.145 6.658 3.824-.091 7.563-1.391 9.094-3.16.513-.593.821-1.261.659-2.595-.177-1.456-.592-4.867-11.553-6.666-19.457-3.196-22.881-14.376-23.189-20.757-.494-10.156 6.04-18.727 16.434-21.847v-1.284c-.002-4.417 3.58-7.999 7.998-7.999zm-68.346 44.199c0 37.687 30.66 68.347 68.346 68.347 37.687 0 68.347-30.66 68.347-68.347 0-37.686-30.66-68.346-68.347-68.346-37.686 0-68.346 30.66-68.346 68.346zm120.692 0c0 28.864-23.482 52.347-52.347 52.347-28.863 0-52.346-23.482-52.346-52.347 0-28.864 23.482-52.346 52.346-52.346 28.865 0 52.347 23.482 52.347 52.346zm85.458-46.998c.513-.593.821-1.261.659-2.595-.177-1.456-.591-4.867-11.554-6.667-19.455-3.194-22.88-14.375-23.189-20.755-.493-10.157 6.041-18.727 16.434-21.847v-1.284c0-4.418 3.582-8 8-8s8 3.582 8 8v1.211c6.672 1.937 12.856 6.508 16.217 14.513 1.711 4.074-.205 8.763-4.279 10.473-4.068 1.709-8.763-.205-10.473-4.279-2.499-5.951-8.737-6.275-12.031-5.528-1.434.325-6.093 1.716-5.887 5.965.051 1.031.203 4.167 9.801 5.743 15.134 2.485 23.492 9.391 24.845 20.527.687 5.654-.85 10.837-4.44 14.99-3.234 3.739-8.125 6.464-13.752 7.792v.991c0 4.418-3.582 8-8 8s-8-3.582-8-8v-1.132c-9.049-2.429-15.913-8.917-18.114-17.744-1.068-4.287 1.54-8.628 5.827-9.697 4.296-1.069 8.63 1.54 9.698 5.827 1.267 5.08 6.812 6.765 11.145 6.657 3.822-.092 7.563-1.392 9.093-3.161zm-9.65 51.397c37.686 0 68.346-30.66 68.346-68.347s-30.66-68.347-68.346-68.347c-37.687 0-68.347 30.66-68.347 68.347s30.66 68.347 68.347 68.347zm0-120.693c28.863 0 52.346 23.482 52.346 52.347s-23.482 52.347-52.346 52.347-52.347-23.482-52.347-52.347 23.482-52.347 52.347-52.347zm-283.89 80.049c-2.21-3.826-.898-8.719 2.928-10.928l145.183-83.822-8.011-.582c-4.406-.32-7.719-4.152-7.398-8.559.32-4.407 4.174-7.719 8.559-7.399l33.982 2.47c2.645.192 5.022 1.683 6.348 3.979s1.428 5.101.272 7.487l-14.853 30.665c-1.382 2.853-4.235 4.514-7.206 4.515-1.17 0-2.357-.258-3.481-.802-3.977-1.926-5.639-6.71-3.713-10.687l3.501-7.229-145.183 83.822c-1.26.727-2.636 1.073-3.992 1.073-2.766-.002-5.455-1.437-6.936-4.003z" fill="#000000" style="fill: rgb(255, 255, 255);"></path></svg>