<!-- icon666.com - MILLIONS vector ICONS FREE --><svg version="1.1" id="Capa_1" xmlns="http://www.w3.org/2000/svg" xmlns:xlink="http://www.w3.org/1999/xlink" x="0px" y="0px" viewBox="0 0 512.005 512.005" style="enable-background:new 0 0 512.005 512.005;" xml:space="preserve"><g><g><path d="M373.333,224.002v21.333c5.891,0,10.667,4.776,10.667,10.667c0,5.891-4.776,10.667-10.667,10.667v21.333 c17.673,0,32-14.327,32-32S391.006,224.002,373.333,224.002z"></path></g></g><g><g><path d="M490.667,192.002H480v-21.333h-21.333v21.333c-0.006,0.295-0.006,0.589,0,0.884c0.244,11.538,9.795,20.693,21.333,20.449 h10.667v32h-32v21.333h32c0.295,0.006,0.589,0.006,0.884,0c11.538-0.244,20.693-9.795,20.449-21.333v-32 c0.006-0.295,0.006-0.589,0-0.884C511.756,200.914,502.205,191.758,490.667,192.002z"></path></g></g><g><g><path d="M466.869,249.165l-106.667-128c-2.03-2.431-5.036-3.834-8.203-3.829H32c-17.673,0-32,14.327-32,32v213.333 c0,17.673,14.327,32,32,32h320c3.167,0.005,6.173-1.398,8.203-3.829l106.667-128C470.175,258.881,470.175,253.124,466.869,249.165 z M346.997,373.336H32c-5.891,0-10.667-4.776-10.667-10.667V149.336c0-5.891,4.776-10.667,10.667-10.667h314.997L444.8,256.002 L346.997,373.336z"></path></g></g><g><g><path d="M138.667,234.669v-10.667c0-11.782-9.551-21.333-21.333-21.333H74.667c-11.782,0-21.333,9.551-21.333,21.333v21.333 c0,11.782,9.551,21.333,21.333,21.333h42.667v21.333H74.667v-10.667H53.333v10.667c0,11.782,9.551,21.333,21.333,21.333h42.667 c11.782,0,21.333-9.551,21.333-21.333v-21.333c0-11.782-9.551-21.333-21.333-21.333H74.667v-21.333h42.667v10.667H138.667z"></path></g></g><g><g><path d="M224,224.002v-21.333h-42.667c-11.782,0-21.333,9.551-21.333,21.333v64c0,11.782,9.551,21.333,21.333,21.333H224v-21.333 h-42.667v-64H224z"></path></g></g><g><g><rect x="170.667" y="245.336" width="53.333" height="21.333"></rect></g></g><g><g><path d="M298.667,202.669h-21.333c-17.673,0-32,14.327-32,32v42.667c0,17.673,14.327,32,32,32h21.333c17.673,0,32-14.327,32-32 v-42.667C330.667,216.996,316.34,202.669,298.667,202.669z M309.333,277.336c0,5.891-4.776,10.667-10.667,10.667h-21.333 c-5.891,0-10.667-4.776-10.667-10.667v-42.667c0-5.891,4.776-10.667,10.667-10.667h21.333c5.891,0,10.667,4.776,10.667,10.667 V277.336z"></path></g></g></svg>