<!-- icon666.com - MILLIONS vector ICONS FREE --><svg clip-rule="evenodd" fill-rule="evenodd" image-rendering="optimizeQuality" shape-rendering="geometricPrecision" text-rendering="geometricPrecision" viewBox="0 0 43.3492 43.3492" xmlns="http://www.w3.org/2000/svg"><g id="Layer_x0020_1"><path d="m.9262 4.6225h41.4968c.5115 0 .9262.4148.9262.9263v22.6745c0 .5115-.4147.9263-.9262.9263h-41.4968c-.5115 0-.9262-.4148-.9262-.9263v-22.6745c0-.5115.4147-.9263.9262-.9263zm40.5705 1.8526h-39.6442v20.8219h39.6442z" fill-rule="nonzero" fill="#000000" style="fill: rgb(255, 255, 255);"></path><path d="m.9262 24.5894c-.4476 0-.8105.3628-.8105.8105 0 .4476.3629.8105.8105.8105h41.4968c.4476 0 .8105-.3629.8105-.8105 0-.4477-.3629-.8105-.8105-.8105h-41.4968z" fill-rule="nonzero" fill="#000000" style="fill: rgb(255, 255, 255);"></path><path d="m19.4571 32.2096c0 .5644 4.435.5644 4.435 0v-.8951-3.0912h-4.435v3.0926z" fill="#000000" style="fill: rgb(255, 255, 255);"></path><path d="m21.6746 35.34c3.8427 0 6.9578-.9225 6.9578-2.0606 0-.8124-1.6764-1.5332-3.9993-1.8722v.8024c0 .7184-.7348.9504-1.31 1.048-.5334.0905-1.1079.1163-1.6485.1163-.5407 0-1.1151-.0258-1.6485-.1163-.5752-.0976-1.31-.3296-1.31-1.048v-.8034c-2.3455.3342-3.9993 1.0538-3.9993 1.8732 0 1.1381 3.1151 2.0606 6.9578 2.0606z" fill="#000000" style="fill: rgb(255, 255, 255);"></path><path d="m14.2624 8.262c-.3069 0-.5557.2489-.5557.5558s.2488.5558.5557.5558h2.5655l2.7925 10.4217-.0006.0005c.0675.2519.2975.4167.547.412h9.4353c.3069 0 .5558-.2489.5558-.5558s-.2489-.5558-.5558-.5558h-9.0198l-2.7848-10.3934c-.053-.2517-.2764-.4408-.5439-.4408z" fill-rule="nonzero" fill="#000000" style="fill: rgb(255, 255, 255);"></path><path d="m17.7542 10.13c-.307 0-.5558.2489-.5558.5558s.2488.5558.5558.5558h6.9745 6.2509l-1.6041 5.9866h-4.6468-5.0726c-.3069 0-.5557.2488-.5557.5558 0 .3069.2488.5557.5557.5557h5.0726 5.0624c.2495.0048.4795-.1601.547-.4119l-.0006-.0005 1.8941-7.0689c.0177-.0543.0273-.1123.0273-.1726 0-.3069-.2488-.5558-.5557-.5558h-6.9745z" fill-rule="nonzero" fill="#000000" style="fill: rgb(255, 255, 255);"></path><g id="_307403400"><circle id="_307402992" cx="21.807" cy="21.663" r="1.012" fill="#000000" style="fill: rgb(255, 255, 255);"></circle><circle id="_307403616" cx="27.924" cy="21.663" r="1.012" fill="#000000" style="fill: rgb(255, 255, 255);"></circle></g><g fill-rule="nonzero"><path d="m21.7928 10.6337c-.0287-.3045-.299-.5281-.6035-.4993s-.5281.299-.4993.6035l.6793 7.0981c.0288.3046.299.5281.6035.4993.3045-.0287.5281-.2989.4993-.6035z" fill="#000000" style="fill: rgb(255, 255, 255);"></path><path d="m25.2844 10.6858c0-.3069-.2488-.5558-.5557-.5558s-.5558.2489-.5558.5558v7.0981c0 .307.2489.5558.5558.5558s.5557-.2488.5557-.5558z" fill="#000000" style="fill: rgb(255, 255, 255);"></path><path d="m28.7674 10.7379c.0287-.3045-.1948-.5747-.4994-.6035-.3045-.0288-.5747.1948-.6035.4993l-.6792 7.0981c-.0288.3046.1947.5748.4993.6035.3045.0288.5747-.1947.6035-.4993z" fill="#000000" style="fill: rgb(255, 255, 255);"></path></g><rect height="1.599" rx=".799" width="3.628" x="12.116" y="8.018" fill="#000000" style="fill: rgb(255, 255, 255);"></rect></g></svg>