<!-- icon666.com - MILLIONS vector ICONS FREE --><svg viewBox="0 -28 332.4416 332" xmlns="http://www.w3.org/2000/svg"><path d="m332.441406 31.8125c0-17.410156-14.234375-31.589844-31.742187-31.589844h-269.109375c-17.40625 0-31.589844 14.179688-31.589844 31.589844v212.375c0 17.511719 14.183594 31.746094 31.589844 31.746094h269.109375c17.507812 0 31.742187-14.234375 31.742187-31.746094zm-300.851562-15.820312h269.109375c8.804687 0 15.972656 7.113281 15.972656 15.820312v31.640625h-300.902344v-31.640625c0-8.707031 7.117188-15.820312 15.820313-15.820312zm269.109375 244.171874h-269.109375c-8.753906 0-15.820313-7.167968-15.820313-15.976562v-164.964844h300.902344v164.964844c0 8.808594-7.167969 15.976562-15.972656 15.976562zm0 0" fill="#000000" style="fill: rgb(255, 255, 255);"></path><path d="m220.824219 53.265625h29.953125c.308594 0 .511718-.257813.511718-.511719v-26.984375c0-.308593-.253906-.511719-.511718-.511719h-29.953125c-.304688 0-.511719.253907-.511719.511719v26.929688c-.050781.308593.207031.566406.511719.566406zm0 0" fill="#000000" style="fill: rgb(255, 255, 255);"></path><path d="m269.925781 53.265625h29.953125c.308594 0 .511719-.257813.511719-.511719v-26.984375c0-.308593-.257813-.511719-.511719-.511719h-29.953125c-.304687 0-.511719.253907-.511719.511719v26.929688c0 .308593.257813.566406.511719.566406zm0 0" fill="#000000" style="fill: rgb(255, 255, 255);"></path><path d="m123.597656 127.554688c-2.40625-3.632813-7.269531-4.609376-10.90625-2.253907l-57.035156 37.683594c-2.203125 1.484375-3.535156 3.945313-3.535156 6.605469 0 2.664062 1.332031 5.121094 3.535156 6.554687l57.035156 37.683594c1.332032.871094 2.867188 1.332031 4.351563 1.332031 2.558593 0 5.070312-1.230468 6.605469-3.535156 2.40625-3.632812 1.382812-8.550781-2.253907-10.90625l-47.101562-31.128906 47.101562-31.128906c3.636719-2.355469 4.609375-7.269532 2.203125-10.90625zm0 0" fill="#000000" style="fill: rgb(255, 255, 255);"></path><path d="m192.152344 125.097656c-3.789063-2.152344-8.601563-.871094-10.75 2.867188l-43.929688 76.082031c-2.203125 3.789063-.871094 8.601563 2.867188 10.753906 1.226562.714844 2.609375 1.074219 3.941406 1.074219 2.714844 0 5.375-1.433594 6.859375-3.941406l43.929687-76.085938c2.152344-3.734375.820313-8.546875-2.917968-10.75zm0 0" fill="#000000" style="fill: rgb(255, 255, 255);"></path><path d="m278.066406 163.035156-57.191406-37.679687c-3.632812-2.410157-8.546875-1.382813-10.902344 2.25-2.40625 3.636719-1.382812 8.550781 2.25 10.90625l47.207032 31.128906-47.207032 31.128906c-3.632812 2.40625-4.65625 7.273438-2.25 10.90625 1.535156 2.304688 4.042969 3.535157 6.601563 3.535157 1.488281 0 3.023437-.410157 4.355469-1.28125l57.1875-37.683594c2.203124-1.433594 3.535156-3.941406 3.535156-6.605469 0-2.660156-1.332032-5.117187-3.585938-6.605469zm0 0" fill="#000000" style="fill: rgb(255, 255, 255);"></path></svg>