<!-- icon666.com - MILLIONS vector ICONS FREE --><svg enable-background="new 0 0 64 64" viewBox="0 0 64 64" xmlns="http://www.w3.org/2000/svg"><g id="webinar"><g><g><path d="m32.2549 47.5166c-.5522 0-1-.4473-1-1v-5.9199c0-.5527.4478-1 1-1s1 .4473 1 1v5.9199c0 .5527-.4478 1-1 1z" fill="#000000" style="fill: rgb(255, 255, 255);"></path></g><g><path d="m12.8892 47.5166c-.5522 0-1-.4473-1-1v-5.9199c0-.5527.4478-1 1-1s1 .4473 1 1v5.9199c0 .5527-.4478 1-1 1z" fill="#000000" style="fill: rgb(255, 255, 255);"></path></g><g><path d="m44.1436 32.8799h12.1177c.8306 0 1.5063-.6777 1.5063-1.5098v-3.8018c0-.832-.6758-1.5098-1.5063-1.5098h-12.1177c-.8311 0-1.5068.6777-1.5068 1.5098v3.8018c-.0001.832.6757 1.5098 1.5068 1.5098zm.4931-4.8213h11.1309v2.8213h-11.1309z" fill="#000000" style="fill: rgb(255, 255, 255);"></path><path d="m43.6367 37.4795h13.1309c.5522 0 1-.4473 1-1s-.4478-1-1-1h-13.1309c-.5522 0-1 .4473-1 1s.4478 1 1 1z" fill="#000000" style="fill: rgb(255, 255, 255);"></path><path d="m43.6367 42.3086h13.1309c.5522 0 1-.4473 1-1s-.4478-1-1-1h-13.1309c-.5522 0-1 .4473-1 1s.4478 1 1 1z" fill="#000000" style="fill: rgb(255, 255, 255);"></path><path d="m58.7246 12.8149c.0683-.4374.1143-.8821.1143-1.3384 0-4.7764-3.8857-8.6621-8.6621-8.6621h-7.7925c-4.7764 0-8.6621 3.8857-8.6621 8.6621 0 .4442.0403.8793.1058 1.3066h-2.4207v-1.293-.8379c0-4.1016-1.6909-6.293-3.1089-7.4092-2.0586-1.6191-5.0347-2.165-7.9624-1.4541-4.1914 1.0176-6.5952 4.248-6.5952 8.8633v.8379 1.293h-8.1544c-2.5288.0001-4.5864 2.0577-4.5864 4.587v31.583c0 2.5293 2.0576 4.5869 4.5864 4.5869h16.627l-3.1433 6.9727h-1.9681c-.5522 0-1 .4473-1 1s.4478 1 1 1h29.7959c.5522 0 1-.4473 1-1s-.4478-1-1-1h-1.9683l-3.146-6.9727h16.6265c2.5308 0 4.5899-2.0576 4.5899-4.5869v-31.583c0-2.4217-1.8935-4.3903-4.2754-4.5552zm-16.3403-8.0004h7.7925c3.6733 0 6.6621 2.9883 6.6621 6.6621s-2.9888 6.6631-6.6621 6.6631h-3.2891c-.2803 0-.5474.1172-.7368.3242l-2.6997 2.9414c-.5474.4307-.9307.4756-1.0464.4043-.0967-.0625-.1895-.3184-.104-.6543l.5303-1.7422c.0889-.292.0396-.6084-.1338-.8594s-.4521-.4092-.7568-.4297c-3.4868-.2314-6.2183-3.1514-6.2183-6.6475 0-3.6738 2.9887-6.662 6.6621-6.662zm-7.9948 9.9687c1.0774 2.5886 3.3715 4.5647 6.1887 5.166l-.2021.665c-.3057 1.1846.0674 2.3145.9512 2.8799.3599.2295.7651.3428 1.1948.3428.7168 0 1.5-.3145 2.248-.9258.0366-.0303.0713-.0635.1035-.0986l2.4536-2.6729h2.8496c3.6055 0 6.7009-2.2161 8.0031-5.3564h.2303c1.4282 0 2.5898 1.1602 2.5898 2.5869v28.1465h-21.6846v-7.6133c0-6.5088-4.8472-12.0977-11.1938-13.1104v-2.5129c2.0015-1.6207 3.2856-4.0942 3.2856-6.864v-.6328zm-15.4698 16.1276c-.0156.014-.035.0235-.0497.0385l-.3383.2617-2.886-4.0219c.6705-.2195 1.3674-.3761 2.0864-.4648l3.2293 2.6068zm1.1355 4.576-1.697 10.0298h-10.5262v-7.6133c0-4.2187 2.4031-7.9737 5.9346-9.9024l3.7446 5.2188c.1582.2207.3994.3672.668.4063.0483.0068.0967.0107.1445.0107.2202 0 .4355-.0732.6118-.209l.2193-.1697zm2.5185-7.4248-3.5479-2.8645v-1.6982c1.087.4791 2.2856.7498 3.5479.7498 1.2621 0 2.4608-.2707 3.5479-.7498v1.6982zm.0001 2.5501 1.7574 1.36-.968 2.4019h-1.6006l-.9643-2.3879zm-.6405 5.7619h1.2601l1.5441 9.1426h-4.3511zm2.2527-7.0429 3.2293-2.6068c.719.0887 1.4159.2454 2.0864.4648l-2.8856 4.0219zm1.7894 3.9132.237.1834c.1763.1367.3916.209.6118.209.0479 0 .0962-.0039.1445-.0107.2686-.0391.5098-.1855.668-.4063l3.7441-5.2188c3.5314 1.9287 5.9346 5.6837 5.9346 9.9023v7.6133h-10.5498l-1.6939-10.0299zm-5.1683-29.5119c2.3364-.5635 4.6748-.1611 6.2544 1.082 1.5244 1.2002 2.313 3.1084 2.3447 5.6758h-3.2802c-4.707 0-5.1919-.9199-6.0933-2.6289-.1929-.3652-.5938-.5752-1.0005-.5264-.4106.0479-.749.3438-.8521.7441-.6104 2.3682-.6665 2.4365-2.4385 2.4229.0489-3.5859 1.8438-5.9873 5.0655-6.7695zm-5.0664 8.7679c.0528.0005.1077.0016.1592.0016 1.7949 0 2.7793-.2617 3.54-1.9023 1.0889 1.2031 2.7954 1.8906 6.686 1.8906h3.2813v2.9258c0 3.7676-3.0654 6.833-6.8335 6.833-3.7676 0-6.833-3.0654-6.833-6.833zm-10.1543 2.2829h8.1543v.6328c0 2.7697 1.2838 5.243 3.2852 6.8638v2.5121c-6.3467 1.0138-11.1939 6.6026-11.1939 13.1114v7.6133h-2.832v-28.1465c0-1.4267 1.1602-2.5869 2.5864-2.5869zm37.149 45.7295h-21.4713l3.1433-6.9727h15.182zm15.6748-8.9727h-18.1979c-.001 0-.002-.0001-.0031 0h-34.6228c-1.4262 0-2.5864-1.1601-2.5864-2.5869v-1.4365h58v1.4365c0 1.4268-1.1616 2.5869-2.5898 2.5869z" fill="#000000" style="fill: rgb(255, 255, 255);"></path><path d="m31.5957 48.5674-.0483.0244c-.4932.249-.6665.8379-.418 1.3311.1748.3457.5337.54.9028.54.1577 0 .3174-.0361.4648-.1104.4932-.249.6909-.8506.4419-1.3438-.2485-.4921-.85-.6923-1.3432-.4413z" fill="#000000" style="fill: rgb(255, 255, 255);"></path><path d="m41.1045 10.5947h10.3521c.5522 0 1-.4473 1-1s-.4478-1-1-1h-10.3521c-.5522 0-1 .4473-1 1s.4477 1 1 1z" fill="#000000" style="fill: rgb(255, 255, 255);"></path><path d="m41.1045 14.6807h2.7549c.5522 0 1-.4473 1-1s-.4478-1-1-1h-2.7549c-.5522 0-1 .4473-1 1s.4477 1 1 1z" fill="#000000" style="fill: rgb(255, 255, 255);"></path><path d="m51.4565 12.6807h-2.7549c-.5522 0-1 .4473-1 1s.4478 1 1 1h2.7549c.5522 0 1-.4473 1-1s-.4477-1-1-1z" fill="#000000" style="fill: rgb(255, 255, 255);"></path></g></g></g></svg>