<!-- icon666.com - MILLIONS vector ICONS FREE --><svg id="Layer_1" enable-background="new 0 0 512 512" viewBox="0 0 512 512" xmlns="http://www.w3.org/2000/svg"><path clip-rule="evenodd" d="m264 442.871c13.29 3.53 23.085 15.642 23.085 30.044 0 17.168-13.917 31.085-31.085 31.085s-31.085-13.917-31.085-31.085c0-14.402 9.795-26.514 23.085-30.044v-34.255c2.65.135 5.317.203 8 .203s5.351-.068 8-.203zm-242.611-375.361c0-28.613 23.195-51.809 51.809-51.809 28.612 0 51.808 23.196 51.808 51.809s-23.196 51.809-51.808 51.809c-28.613 0-51.809-23.196-51.809-51.809zm469.222 372.269c0 28.613-23.195 51.809-51.809 51.809-28.612 0-51.808-23.196-51.808-51.809s23.196-51.808 51.808-51.808c28.614-.001 51.809 23.194 51.809 51.808zm-420.745 48.476c-28.613 0-51.809-23.195-51.809-51.809 0-28.612 23.196-51.808 51.809-51.808s51.809 23.196 51.809 51.808c0 28.614-23.196 51.809-51.809 51.809zm372.268-469.221c28.613 0 51.809 23.195 51.809 51.809 0 28.612-23.196 51.808-51.809 51.808s-51.809-23.196-51.809-51.808c.001-28.614 23.196-51.809 51.809-51.809zm-373.005 228.966h31.809c-.067 1.874-.113 3.753-.113 5.644 0 3.481.126 6.932.352 10.356h-32.048c-3.53 13.29-15.642 23.085-30.044 23.085-17.168 0-31.085-13.917-31.085-31.085s13.917-31.085 31.085-31.085c14.402 0 26.514 9.795 30.044 23.085zm72.6-99.324c3.6-3.918 7.403-7.647 11.385-11.177l-27.046-27.539c-3.343 4.157-7.163 7.912-11.382 11.18zm106.272-50.004v-29.543c-13.291-3.53-23.085-15.642-23.085-30.044-.001-17.168 13.916-31.085 31.084-31.085s31.085 13.917 31.085 31.085c0 14.402-9.794 26.514-23.085 30.044v29.543c-2.65-.135-5.317-.203-8-.203s-5.35.068-7.999.203zm112.968 40.702c3.918 3.601 7.647 7.402 11.177 11.384l27.539-27.046c-4.157-3.343-7.912-7.163-11.18-11.382zm50.093 108.626h31.809c3.53-13.29 15.642-23.085 30.044-23.085 17.168 0 31.085 13.917 31.085 31.085s-13.917 31.085-31.085 31.085c-14.402 0-26.514-9.795-30.044-23.085h-32.048c.226-3.424.352-6.875.352-10.356 0-1.891-.045-3.77-.113-5.644zm-40.791 110.613c-3.6 3.918-7.402 7.647-11.385 11.178l27.046 27.539c3.343-4.157 7.164-7.912 11.382-11.18zm-219.239 9.302c-3.918-3.601-7.647-7.402-11.177-11.384l-27.539 27.046c4.157 3.343 7.912 7.164 11.18 11.382zm104.968-253.446c-76.864 0-139.175 62.311-139.175 139.175s62.311 139.175 139.175 139.175 139.175-62.311 139.175-139.175c0-76.865-62.311-139.175-139.175-139.175zm26.368 226.474-4.142 4.142c-6.517 6.517-17.148 6.517-23.665 0l-16.147-16.148 15.974-15.975zm-74.243-96.872c9.712-20.365 14.908-43.52 20.337-62.897.911-3.252 3.295-5.595 6.561-6.451 3.266-.855 6.493.019 8.881 2.407l27.872 27.872.62-.623c7.027-7.027 18.42-7.027 25.447 0s7.027 18.42 0 25.447l-.623.619 26.463 26.463c2.448 2.448 3.307 5.789 2.342 9.114-.964 3.325-3.478 5.688-6.856 6.446-20.852 4.678-42.404 10.037-62.102 20.546zm29.961 52.59 4.988 4.988-15.974 15.975-6.651 6.651c-11.843 11.843-31.222 11.843-43.065 0s-11.843-31.221.001-43.064l22.626-22.626zm54.704-124.295c0 4.418-3.582 7.999-7.999 7.999-4.418 0-7.999-3.582-7.999-7.999v-15.053c0-4.417 3.582-7.999 7.999-7.999 4.418 0 7.999 3.582 7.999 7.999zm27.2 21.179c-3.124 3.124-8.19 3.124-11.314 0s-3.124-8.189 0-11.314l10.644-10.644c3.124-3.124 8.19-3.124 11.314 0s3.124 8.19 0 11.314zm8.457 32.469c-4.417 0-7.999-3.582-7.999-7.999 0-4.418 3.582-7.999 7.999-7.999h15.053c4.417 0 7.999 3.581 7.999 7.999 0 4.417-3.582 7.999-7.999 7.999z" fill-rule="evenodd"></path></svg>