<!-- icon666.com - MILLIONS vector ICONS FREE --><svg xmlns="http://www.w3.org/2000/svg" xmlns:xlink="http://www.w3.org/1999/xlink" version="1.1" id="Layer_29" x="0px" y="0px" viewBox="0 0 481.1 516.7" xml:space="preserve"><g id="Layer_51"><path d="M134.7,94.1c5.4,0,9.7-4.4,9.7-9.7s-4.4-9.7-9.7-9.7c-5.4,0-9.7,4.4-9.7,9.7l0,0C125,89.7,129.4,94.1,134.7,94.1z"></path><path d="M481,205.4c-0.1-22.9,2.9-45.6-23.1-52.4c-2.8-1.4-5.7-2.6-8.7-3.4c16.2-10.9,25.9-29.2,25.9-48.7V72.1 c0-32.1-25.6-58.3-57.2-58.3h-18.8c-13.9,0-44.4-5.8-55.7-12.9c-2.8-1.8-6.5-0.9-8.3,1.9c-0.8,1.3-1.1,2.8-0.8,4.3l7.4,38.5 l0.2,55.2c-0.1,21,11.2,40.5,29.4,50.9c-19.8,4-34.1,21.4-34.1,41.7v34.3l-33.8,1.1h-0.1c-1.5,0.1-3.1,0.3-4.6,0.7 c-3.9-2-8.2-3-12.6-3h-48.8L209,165.3c0-0.1-0.1-0.2-0.1-0.3c-5.4-10.4-16.1-16.8-27.8-16.8h-16c-0.5-0.2-1-0.3-1.6-0.3 c11.6-8.4,19.7-20.8,22.8-34.8c0-0.1,0-0.1,0-0.2c0.9-4.1,1.3-8.3,1.3-12.5l0.2-52.7l2.4-13.4c0.3-1.4,0.4-2.7,0.4-4 c0-10.5-7.5-19.8-18.2-21.8c-3-0.6-6.1-0.5-9.1,0.2c-11.5,2.7-25,4.7-32.9,4.7h-18.8c-31.5,0-57.2,26.1-57.2,58.3v28.8 c0,19.2,9.3,37.1,25,48.1C58.6,153.7,44,172.3,44,193.7V317c-6.3,3.8-10.2,10.6-10.2,18v11H6c-3.3,0-6,2.7-6,6v99.6 c0,3.3,2.7,6,6,6h56.2v53.1c0,3.3,2.7,6,6,6H123c0.1,0,0.1,0,0.2,0h54.4c13.3,0,24.1-10.8,24.1-24.1v-0.5c0-11-7.5-20.6-18.1-23.4 l1.1-237.7l24.9,48c1,2,3.1,3.2,5.3,3.2h71.2c4.2,0,8.3-0.9,12.1-2.8c1.8,0.5,3.7,0.8,5.6,0.8l33.4,0.6v48 c0,12.5,10.9,22.3,22.5,24.9v51.4H333v-7.7c0-9.8-7.9-17.7-17.7-17.7H290c-9.8,0-17.7,7.9-17.7,17.7v7.7h-36c-3.3,0-6,2.7-6,6v99.6 c0,3.3,2.7,6,6,6h183.8c0.1,0,0.1,0,0.2,0h54.8c3.3,0,6-2.7,6-6C481.1,510.7,481,205.7,481,205.4z M130.5,146.6h-3.3v-11.3 c0-9.7,7.9-17.6,17.6-17.6h27.5C165.6,134.7,149.4,146.6,130.5,146.6z M154.1,160.2L133,210.8v-50.6H154.1z M66.6,71.6 c0-25.5,20.3-46.3,45.2-46.3h18.8c8.8,0,23.1-2,35.6-5c3.3-0.8,6.8,0.1,9.3,2.5c2.5,2.4,3.7,5.9,3,9.3l-1.8,9.8 c-15.5,2.6-56.9,10.2-74.7,13.5c-4.1,0.8-11.3,1.4-13.3,5.2c-0.8,1.4-1.4,3.9-2.2,7.9c-0.9,4-1.9,9.7-3.2,17.7 c-0.6,3.6-3.7,6.2-7.3,6.2h-9.4V71.6z M66.8,104.5h11.9c8,0,14.8-5.8,16-13.7c0.3-1.8,3.8-21,4.4-23.2c0,0,59.9-10.2,76.9-13 l-0.2,46.2c0,1.8-0.1,3.6-0.3,5.4H145c-16.4,0-29.6,13.3-29.6,29.6v11.3h-3.5C88.2,146.6,68.8,128.1,66.8,104.5z M121,160.2v49.7 l-19.8-49l4.3-0.7H121z M56.1,311h30.7v8.9c0,7.2-5.4,13.4-12.6,14.2c-0.6,0.1-1.2,0.1-1.7,0.1h-2.1c-2.9,0-5.8-0.9-8.2-2.6 c-3.8-2.7-6.1-7.1-6.1-11.7V311z M96.9,329.9c1,1.5,1.6,3.3,1.6,5.1v11H76.1C85.4,344.6,93.3,338.5,96.9,329.9z M45.9,335 c0-1.3,0.3-2.6,0.8-3.7c3.1,6.5,8.7,11.4,15.5,13.6v1.1H45.9V335z M12,357.9h117.4v25.7l-36.2,16.3h-7.1v-7.7c0-3.3-2.7-6-6-6H61.2 c-3.3,0-6,2.7-6,6v7.7H44.9L12,387.3V357.9z M135.4,345.9h-24.9v-11c0-8-4.5-15.2-11.6-18.8v-19h72.7v170.8h-42.7v-10.4h6.5 c3.3,0,6-2.7,6-6v-99.6C141.4,348.6,138.7,346,135.4,345.9z M74.1,400v12h-6.9v-12H74.1z M12,445.6v-45.4c0,0,31,11.8,31.8,11.8 h11.4v7.6c0,3.3,2.7,6,6,6h18.9c3.3,0,6-2.7,6-6V412h8.4c0.8,0,35-15.1,35-15.1v48.7H12z M116.9,457.6V468H74.2v-10.4H116.9z M134.7,492.6c0,6.5-5.1,11.9-11.7,12.1H74.2V480H123c1.5,0.1,3,0.4,4.4,1c1.2,0.5,2.3,1.2,3.2,2.1c2.6,2.3,4.1,5.6,4.1,9.1V492.6z M189.7,492.1v0.5c0,6.7-5.4,12.1-12.1,12.1h-33.3c1.5-3,2.4-6.4,2.4-9.8v-5.1c0-2.3-0.4-4.6-1.1-6.8c-0.3-1-0.8-2.1-1.3-3h33.3 C184.3,480,189.7,485.4,189.7,492.1z M265.2,270.2h-46.6l-34.4-66.3c-1.5-2.9-5.2-4.1-8.1-2.5c-2,1-3.2,3.1-3.2,5.3l-0.5,78H98.8 v-67.6c0-3.3-2.7-6-6-6s-6,2.7-6,6v81.8H56.1V193.6c0-17.9,13.7-32.7,31.5-34.3l33.9,83.7c0.9,2.3,3.1,3.7,5.5,3.8 c1.2,0,2.3-0.4,3.3-1c1-0.7,1.7-1.6,2.2-2.7l34.6-82.9h14c7.2,0,13.7,3.9,17.1,10.3l29.9,64.6c1,2.1,3.1,3.5,5.4,3.5h31.7V270.2z M284.8,270.2h-7.6v-31.7h7.9c-3.1,4.1-4.8,9.2-4.9,14.4v2.9C280.2,261,281.8,266,284.8,270.2z M348.4,16.5 c16.8,6.1,40.3,9.4,50.8,9.4H418c24.9,0,45.2,20.8,45.2,46.3v20.9h-9.9c-3.4,0-6.2-2.4-6.7-5.7c-3-18.9-4.6-24.8-6-27.2 c-0.1-0.1-0.4-1.9-5.9-3.1c-3-0.7-30.6-5.4-41.2-7.2s-23.7-4-40-6.7L348.4,16.5z M354,100.9l-0.2-46.1c54.3,9,71.5,12.2,76.8,13.3 c0.7,2.5,4.3,23.3,4.5,24.7c1.1,7.1,7.2,12.3,14.4,12.3h13.4c-2,23.6-21.4,42.2-45,42.2h-18.8C374.3,147.2,354,126.4,354,100.9z M440.9,164.6l-18.5,17.9v-17.9H440.9z M410.4,164.6v29.5l-1.5,1.5l-12.4-31H410.4z M349.3,193.5c0-16.8,13.7-30.5,30.5-30.5h3.1 l16.6,41.6l-22.7,21.9l-5,0.2V196c0-3.3-2.7-6-6-6s-6,2.7-6,6v31.1l-10.5,0.3V193.5z M320.3,268.5l-16.1-0.3 c-6.7-0.2-12-5.7-11.9-12.3V253c0-6.5,5.1-11.8,11.6-12.1l16.4-0.5V268.5z M349.3,328.7v-9.6h10.5v22.1 C354.2,339.1,349.3,334.3,349.3,328.7z M349.3,307.1V281l10.5,0.2v25.9H349.3z M284.3,397.4c0-3.2,2.6-5.7,5.7-5.7h25.3 c3.2,0,5.7,2.6,5.7,5.7v7.7h-36.7V397.4z M242.3,417.1h117.4v25.7l-36.2,16.3h-7.1v-7.7c0-3.3-2.7-6-6-6h-18.9c-3.3,0-6,2.7-6,6 v7.7h-10.3l-32.9-12.7V417.1z M304.4,457.4v15.3h-6.9v-15.3H304.4z M344.9,504.7H242.3v-45.4c0,0,31,11.8,31.8,11.8h11.4v7.6 c0,3.3,2.7,6,6,6h18.9c3.3,0,6-2.7,6-6v-7.6h8.4c0.8,0,35-15.1,35-15.1v12.8c-10.6,2.8-18.1,12.4-18.1,23.4 C341.7,492.2,341.6,500.1,344.9,504.7z M399,504.7h-33.3c-6.7,0-12.1-5.4-12.1-12.1v-0.5c0-4.3,2.3-8.3,6.1-10.5 c0.6-0.3,1.2-0.6,1.8-0.8c1.4-0.5,2.8-0.8,4.3-0.8H399c-0.4,0.8-0.8,1.7-1.1,2.6c-0.8,2.3-1.2,4.8-1.2,7.2v5.1 C396.7,498.3,397.5,501.7,399,504.7z M420.4,334.1c-3.3,0-6,2.7-6,6V468h-42.7V296.7H469V468h-42.6V340.1 C426.4,336.8,423.7,334.1,420.4,334.1z M469.1,504.7h-48.8c-12.5,0-11.7-12.6-11.7-12.6c0-6.5,5.1-11.9,11.7-12.1h0.1 c0.1,0,0.1,0,0.2,0h48.5V504.7z M371.8,284.7v-3.4l25.8,0.4h0.1c1.5,0,3-0.6,4.1-1.6l67-62l0.4,66.5L371.8,284.7z M469.6,201.1 l-74.3,68.7l-63.1-1.1v-28.8l47.2-1.5c1.5,0,77.9-73,77.9-73C473.3,171.8,470.7,194.5,469.6,201.1z"></path><circle cx="395" cy="84.9" r="9.7"></circle><path d="M404.5,121.8c0.6-3.3-1.5-6.4-4.8-7s-6.4,1.5-7,4.8v0.1c-0.1,0.6-0.8,1.3-1.9,1.8c-2,0.9-4.2,1.1-6.3,0.7 c-3.3-0.6-6.4,1.5-7,4.8c-0.6,3.3,1.5,6.4,4.8,7h0.1c1.4,0.3,2.9,0.4,4.3,0.4c3.2,0,6.4-0.7,9.4-2 C400.4,130.4,403.6,126.4,404.5,121.8z"></path></g></svg>