<!-- icon666.com - MILLIONS vector ICONS FREE --><svg xmlns="http://www.w3.org/2000/svg" viewBox="0 0 88 88"><g id="Video_Class" data-name="Video Class"><path d="M11,16V48a1,1,0,0,0,1,1H76a1,1,0,0,0,1-1V16a1,1,0,0,0-1-1H12A1,1,0,0,0,11,16Zm6,31V35.8345L47.8818,30.22a6.4454,6.4454,0,0,1-4.958,5.0474L34.793,36.9917A.9992.9992,0,0,0,34,37.97V47ZM13,17H75V47H36V38.78l7.3389-1.5567A8.4467,8.4467,0,0,0,50,29a1,1,0,0,0-1.1787-.9839l-33,6A1,1,0,0,0,15,35V47H13Z" fill="#000000" style="fill: rgb(255, 255, 255);"></path><path d="M25,31a6,6,0,1,0-6-6A6.0066,6.0066,0,0,0,25,31Zm0-10a4,4,0,1,1-4,4A4.0042,4.0042,0,0,1,25,21Z" fill="#000000" style="fill: rgb(255, 255, 255);"></path><path d="M40,28.0625a1,1,0,0,0,1-1V21H71V43H41V41a1,1,0,0,0-2,0v3a1,1,0,0,0,1,1H72a1,1,0,0,0,1-1V20a1,1,0,0,0-1-1H40a1,1,0,0,0-1,1v7.0625A1,1,0,0,0,40,28.0625Z" fill="#000000" style="fill: rgb(255, 255, 255);"></path><path d="M68,31H53a1,1,0,0,0,0,2H68a1,1,0,0,0,0-2Z" fill="#000000" style="fill: rgb(255, 255, 255);"></path><path d="M68,27H53a1,1,0,0,0,0,2H68a1,1,0,0,0,0-2Z" fill="#000000" style="fill: rgb(255, 255, 255);"></path><path d="M69,24a1,1,0,0,0-1-1H44a1,1,0,0,0,0,2H68A1,1,0,0,0,69,24Z" fill="#000000" style="fill: rgb(255, 255, 255);"></path><path d="M44,41H68a1,1,0,0,0,0-2H44a1,1,0,0,0,0,2Z" fill="#000000" style="fill: rgb(255, 255, 255);"></path><path d="M50,37H68a1,1,0,0,0,0-2H50a1,1,0,0,0,0,2Z" fill="#000000" style="fill: rgb(255, 255, 255);"></path><path d="M12,53H76a5.0059,5.0059,0,0,0,5-5V6a5.0059,5.0059,0,0,0-5-5H12A5.0059,5.0059,0,0,0,7,6V48A5.0059,5.0059,0,0,0,12,53Zm67-5a3.0033,3.0033,0,0,1-3,3H12a3.0033,3.0033,0,0,1-3-3V13H30a5.0085,5.0085,0,0,0,4.8994-4H79ZM9,6a3.0033,3.0033,0,0,1,3-3H76a3.0033,3.0033,0,0,1,3,3V7H34a1,1,0,0,0-1,1,3.0033,3.0033,0,0,1-3,3H9Z" fill="#000000" style="fill: rgb(255, 255, 255);"></path><path d="M14,4a3,3,0,1,0,3,3A3.0033,3.0033,0,0,0,14,4Zm0,4a1,1,0,1,1,1-1A1.0009,1.0009,0,0,1,14,8Z" fill="#000000" style="fill: rgb(255, 255, 255);"></path><path d="M21,4a3,3,0,1,0,3,3A3.0033,3.0033,0,0,0,21,4Zm0,4a1,1,0,1,1,1-1A1.0009,1.0009,0,0,1,21,8Z" fill="#000000" style="fill: rgb(255, 255, 255);"></path><path d="M31,7a3,3,0,1,0-3,3A3.0033,3.0033,0,0,0,31,7ZM28,8a1,1,0,1,1,1-1A1.0009,1.0009,0,0,1,28,8Z" fill="#000000" style="fill: rgb(255, 255, 255);"></path><path d="M46,6H75a1,1,0,0,0,0-2H46a1,1,0,0,0,0,2Z" fill="#000000" style="fill: rgb(255, 255, 255);"></path><path d="M86,85H81V80a6.0066,6.0066,0,0,0-6-6H74V70.5762A5.0034,5.0034,0,0,0,77,66V60a5.0059,5.0059,0,0,0-5-5H68a5.0059,5.0059,0,0,0-5,5v6a5.0034,5.0034,0,0,0,3,4.5762V74H65a6.0066,6.0066,0,0,0-6,6v5H55V80a6.0066,6.0066,0,0,0-6-6H48V70.5762A5.0034,5.0034,0,0,0,51,66V60a5.0059,5.0059,0,0,0-5-5H42a5.0059,5.0059,0,0,0-5,5v6a5.0034,5.0034,0,0,0,3,4.5762V74H39a6.0066,6.0066,0,0,0-6,6v5H29V80a6.0066,6.0066,0,0,0-6-6H22V70.5762A5.0034,5.0034,0,0,0,25,66V60a5.0059,5.0059,0,0,0-5-5H16a5.0059,5.0059,0,0,0-5,5v6a5.0034,5.0034,0,0,0,3,4.5762V74H13a6.0066,6.0066,0,0,0-6,6v5H2a1,1,0,0,0,0,2H86a1,1,0,0,0,0-2ZM65,66V60a3.0033,3.0033,0,0,1,3-3h4a3.0033,3.0033,0,0,1,3,3v6a3,3,0,0,1-2.31,2.9123A2.6612,2.6612,0,0,1,72,69H68a2.6612,2.6612,0,0,1-.69-.0877A3,3,0,0,1,65,66Zm3,5h4v3H68ZM39,66V60a3.0033,3.0033,0,0,1,3-3h4a3.0033,3.0033,0,0,1,3,3v6a3,3,0,0,1-2.31,2.9123A2.6612,2.6612,0,0,1,46,69H42a2.6612,2.6612,0,0,1-.69-.0877A3,3,0,0,1,39,66Zm3,5h4v3H42ZM13,66V60a3.0033,3.0033,0,0,1,3-3h4a3.0033,3.0033,0,0,1,3,3v6a3,3,0,0,1-2.31,2.9123A2.6612,2.6612,0,0,1,20,69H16a2.6612,2.6612,0,0,1-.69-.0877A3,3,0,0,1,13,66Zm3,5h4v3H16ZM9,85V80a4.0042,4.0042,0,0,1,4-4H23a4.0042,4.0042,0,0,1,4,4v5Zm26,0V80a4.0042,4.0042,0,0,1,4-4H49a4.0042,4.0042,0,0,1,4,4v5Zm26,0V80a4.0042,4.0042,0,0,1,4-4H75a4.0042,4.0042,0,0,1,4,4v5Z" fill="#000000" style="fill: rgb(255, 255, 255);"></path></g></svg>